<?xml version="1.0" encoding="utf-8"?>
<svg viewBox="0 0 500 500" xmlns="http://www.w3.org/2000/svg">
  <defs>
    <clipPath id="clipPath102" clipPathUnits="userSpaceOnUse">
      <path id="path100" d="m 2121.62,3286.45 c -8.19,0 -19.41,20.13 -26.51,40.25 -7.1,20.12 -10.09,40.25 -1.84,40.25 1.32,0 2.93,-0.52 4.85,-1.63 0,0 25.25,-10.1 57.91,-10.1 2.04,0 4.11,0.04 6.2,0.12 0.41,0.02 0.81,0.03 1.19,0.03 33.13,0 -22.75,-59.96 -39.65,-68.41 -0.69,-0.34 -1.41,-0.51 -2.15,-0.51"/>
    </clipPath>
  </defs>
  <g transform="matrix(1.549736, 0, 0, -1.603575, 20.896996, 838.411072)" id="g10" style="">
    <g transform="scale(0.1)" id="g12">
      <path id="path16" style="fill:#bf692a;fill-opacity:1;fill-rule:nonzero;stroke:none" d="M 2697.41 2629.56 C 2688.45 2544.87 2429.53 2477.5 1983.26 2507.92 C 1536.86 2538.33 1075.69 2464.51 525.141 2494.92 C -25.281 2525.33 117.504 2629.56 212.813 2675.18 C 223.352 2680.21 234.977 2684.9 247.449 2689.32 C 346.996 2724.68 490.867 2740.15 429.957 2755.53 C 361.527 2772.95 427.051 2829.44 694.813 2857.64 C 962.578 2885.84 1333.89 2873.64 1373.25 2877.18 C 1905.87 2925 2161.76 2812.02 2349.23 2785.94 L 2349.6 2785.85 C 2536.95 2759.78 2706.25 2714.16 2697.41 2629.56"/>
      <path id="path18" style="fill:#ac511e;fill-opacity:1;fill-rule:nonzero;stroke:none" d="M 2697.41 2629.56 C 2688.45 2544.87 2429.53 2477.5 1983.26 2507.92 C 1536.86 2538.33 1075.69 2464.51 525.141 2494.92 C -25.281 2525.33 117.504 2629.56 212.813 2675.18 C 223.352 2680.21 234.977 2684.9 247.449 2689.32 C 237.883 2668.63 191.859 2594.55 263.191 2579.7 C 347.969 2562.02 429.711 2595.17 456.965 2581.91 C 484.211 2568.65 484.211 2535.5 562.93 2535.5 C 641.648 2535.5 685.73 2553.27 701.598 2555.48 C 717.34 2557.6 726.422 2537.71 774.863 2531.08 C 823.305 2524.45 863.027 2561.67 885.551 2559.63 C 908.082 2557.6 923.219 2546.55 959.551 2531.08 C 995.879 2515.61 1044.32 2546.55 1071.57 2542.13 C 1098.82 2537.71 1168.46 2528.87 1213.87 2526.66 C 1259.29 2524.45 1359.2 2577.49 1450.03 2562.02 C 1540.85 2546.55 1937.48 2548.76 2131.25 2555.39 C 2325.01 2562.02 2340.15 2619.48 2206.93 2643.79 C 2073.72 2668.1 1919.31 2687.99 2034.36 2690.21 C 2149.41 2692.41 2152.44 2681.36 2361.35 2665.89 C 2570.25 2650.42 2664.11 2683.57 2585.39 2705.67 C 2506.67 2727.77 2573.28 2721.14 2446.12 2758.72 C 2416.81 2767.38 2382.91 2776.75 2349.6 2785.85 C 2536.95 2759.78 2706.25 2714.16 2697.41 2629.56"/>
      <path id="path20" style="fill:#8e481e;fill-opacity:1;fill-rule:nonzero;stroke:none" d="M 1387.96 2825.91 C 1387.17 2825.59 1354.75 2814.08 1325.86 2781.87 C 1313.51 2768.11 1300.45 2762.42 1288.75 2757.65 C 1282.91 2755.24 1277.4 2753.21 1272.3 2749.96 C 1269.78 2748.33 1267.31 2746.31 1265.27 2743.65 C 1263.22 2741.01 1261.72 2737.7 1261.09 2734.17 C 1260.27 2729.63 1259.69 2726.02 1258.88 2723.05 C 1257.62 2718.6 1256.18 2715.35 1251.84 2710.28 C 1247.5 2705.26 1240.08 2698.8 1227.7 2689.98 C 1219.58 2684.18 1213.9 2680.94 1209.58 2678.74 C 1206.33 2677.08 1203.8 2676.02 1201.23 2674.78 C 1197.42 2673.03 1193.06 2670.25 1189.59 2665.8 C 1186.08 2661.4 1182.96 2655.78 1178.34 2646.57 C 1170.44 2630.77 1164.45 2621.22 1157.35 2613.77 C 1150.25 2606.31 1141.55 2600.41 1127.32 2592.5 C 1097.13 2575.71 1078.92 2555.83 1078.51 2555.41 C 1075.21 2551.8 1075.45 2546.21 1079.05 2542.92 C 1082.65 2539.61 1088.24 2539.86 1091.54 2543.46 L 1091.67 2543.59 C 1093.31 2545.35 1110 2562.67 1135.91 2577.05 C 1150.61 2585.21 1161.18 2592.16 1170.16 2601.58 C 1179.12 2611 1185.98 2622.33 1194.16 2638.66 C 1198.08 2646.54 1200.78 2651.25 1202.69 2653.83 C 1204.15 2655.79 1204.97 2656.51 1205.99 2657.24 C 1207.44 2658.31 1210.46 2659.52 1215.77 2662.07 C 1221.03 2664.63 1228.14 2668.56 1237.98 2675.59 C 1255.18 2687.91 1264.48 2696.45 1270.21 2705.34 C 1273.05 2709.76 1274.8 2714.19 1275.94 2718.43 C 1277.08 2722.69 1277.71 2726.71 1278.49 2731.01 L 1279.31 2732.91 C 1280.01 2733.9 1282.08 2735.49 1285.77 2737.2 C 1296.79 2742.55 1319.43 2748.09 1339.04 2770.08 C 1351.93 2784.49 1365.82 2794.37 1376.41 2800.6 C 1381.71 2803.72 1386.18 2805.91 1389.28 2807.31 C 1390.83 2808.02 1392.03 2808.52 1392.82 2808.83 L 1393.69 2809.17 L 1393.88 2809.24 L 1393.89 2809.25 C 1398.49 2810.88 1400.89 2815.94 1399.25 2820.54 C 1397.62 2825.14 1392.56 2827.54 1387.96 2825.91"/>
      <path id="path22" style="fill:#8e481e;fill-opacity:1;fill-rule:nonzero;stroke:none" d="M 1511.21 2843.8 C 1503.5 2841.24 1497.35 2836.61 1492.25 2831.38 C 1484.59 2823.5 1478.78 2814.21 1471.95 2805.45 C 1465.14 2796.66 1457.53 2788.39 1446.8 2781.94 C 1430.78 2772.31 1419.59 2765.77 1410.37 2757.71 C 1401.12 2749.66 1394.5 2740.04 1388.62 2726.49 C 1383.2 2714.1 1377.19 2703.33 1369.2 2694.25 C 1361.19 2685.17 1351.2 2677.63 1337.06 2671.65 C 1319.7 2664.4 1308.94 2652.1 1300.56 2639.23 C 1292.11 2626.28 1285.43 2612.57 1275.63 2599.79 C 1266.39 2587.8 1256.78 2583.16 1246.41 2578.34 C 1241.25 2575.95 1235.9 2573.6 1230.71 2570.11 C 1225.53 2566.66 1220.55 2561.84 1217.02 2555.23 C 1214.71 2550.93 1216.32 2545.57 1220.62 2543.25 C 1224.91 2540.94 1230.27 2542.54 1232.59 2546.85 C 1234.68 2550.67 1237.13 2553.09 1240.6 2555.45 C 1245.73 2558.99 1253.36 2561.8 1262.22 2566.35 C 1271.04 2570.92 1280.94 2577.58 1289.67 2589.05 C 1300.75 2603.57 1307.72 2617.98 1315.34 2629.54 C 1323.03 2641.16 1330.75 2649.76 1343.92 2655.36 C 1360.3 2662.24 1372.81 2671.56 1382.47 2682.57 C 1392.15 2693.57 1398.99 2706.1 1404.82 2719.41 C 1410.19 2731.56 1414.81 2738.02 1422.04 2744.42 C 1429.28 2750.83 1439.79 2757.14 1455.9 2766.78 C 1473.74 2777.5 1484.21 2792.09 1492.83 2803.9 C 1497.14 2809.83 1501.03 2815.08 1504.89 2819.02 C 1508.78 2822.98 1512.47 2825.58 1516.8 2827.03 C 1521.44 2828.57 1523.94 2833.58 1522.39 2838.21 C 1520.85 2842.85 1515.84 2845.35 1511.21 2843.8"/>
      <path id="path24" style="fill:#8e481e;fill-opacity:1;fill-rule:nonzero;stroke:none" d="M 1665.03 2860.33 C 1652.72 2860.26 1639.11 2854.95 1626.35 2844.71 C 1613.61 2834.43 1601.85 2819.04 1594.1 2798.35 C 1590.79 2789.55 1586.91 2783.2 1582.64 2778.15 C 1576.23 2770.62 1568.72 2765.83 1559.93 2761.09 C 1551.18 2756.35 1541.22 2751.81 1531.27 2744.54 C 1524.22 2739.37 1519.01 2733.19 1515.01 2726.8 C 1509 2717.19 1505.48 2707.22 1501.56 2698.21 C 1497.65 2689.16 1493.48 2681.18 1486.87 2674.58 C 1482.83 2670.5 1476.54 2666.64 1468.99 2663.08 C 1457.68 2657.69 1443.79 2652.96 1430.92 2646.98 C 1424.48 2643.97 1418.27 2640.63 1412.7 2636.52 C 1407.13 2632.41 1402.16 2627.47 1398.66 2621.25 C 1390.46 2606.48 1387.73 2589.92 1383.13 2576.56 C 1380.87 2569.88 1378.26 2564.09 1374.9 2559.64 C 1371.5 2555.2 1367.55 2551.95 1361.53 2549.69 C 1356.95 2548 1354.6 2542.92 1356.29 2538.34 C 1357.98 2533.76 1363.06 2531.41 1367.64 2533.1 C 1376.88 2536.47 1383.98 2542.26 1389.02 2549 C 1396.61 2559.17 1400.1 2571.01 1403.34 2582.27 C 1406.51 2593.56 1409.41 2604.37 1414.07 2612.58 C 1416.6 2617.12 1421.24 2621.37 1427.7 2625.31 C 1437.33 2631.24 1450.59 2636.15 1463.65 2641.47 C 1476.72 2646.88 1489.74 2652.56 1499.37 2662.08 C 1511.45 2674.21 1516.61 2688.49 1521.76 2700.65 C 1524.32 2706.78 1526.86 2712.45 1529.98 2717.39 C 1533.11 2722.35 1536.73 2726.61 1541.73 2730.28 C 1552.53 2738.28 1565.07 2743 1577.81 2751.04 C 1584.14 2755.08 1590.45 2760.04 1596.11 2766.71 C 1601.77 2773.36 1606.73 2781.67 1610.65 2792.15 C 1617.36 2810.02 1627.29 2822.74 1637.45 2830.95 C 1647.58 2839.18 1658.07 2842.71 1665.03 2842.65 C 1669.92 2842.65 1673.88 2846.6 1673.88 2851.48 C 1673.88 2856.37 1669.92 2860.33 1665.03 2860.33"/>
      <path id="path26" style="fill:#8e481e;fill-opacity:1;fill-rule:nonzero;stroke:none" d="M 1756.37 2855.31 C 1752.29 2854.44 1748.56 2852.66 1745.42 2850.33 C 1739.92 2846.22 1736.16 2840.73 1733 2834.84 C 1728.3 2825.97 1724.82 2815.81 1720.79 2805.8 C 1716.78 2795.78 1712.25 2786 1706.21 2778.13 C 1697.55 2766.69 1683.96 2760.29 1669.7 2753.64 C 1662.62 2750.29 1655.45 2746.87 1648.91 2742.23 C 1642.4 2737.61 1636.43 2731.53 1632.84 2723.28 C 1626.85 2709.52 1621.31 2690.42 1614.07 2672.66 C 1610.47 2663.8 1606.48 2655.35 1602.05 2648.3 C 1597.62 2641.24 1592.75 2635.66 1587.72 2632.23 C 1576.2 2624.26 1563.78 2620.45 1552.07 2615.09 C 1546.24 2612.38 1540.49 2609.2 1535.53 2604.41 C 1530.55 2599.65 1526.64 2593.19 1524.71 2585.31 C 1522 2574.23 1514.37 2560.2 1507.37 2549.39 C 1503.89 2543.96 1500.58 2539.29 1498.15 2535.99 C 1496.94 2534.34 1495.95 2533.04 1495.27 2532.15 L 1494.49 2531.16 L 1494.25 2530.85 C 1491.2 2527.04 1491.82 2521.47 1495.63 2518.43 C 1499.44 2515.38 1505.01 2516 1508.06 2519.8 C 1508.18 2519.97 1514.77 2528.19 1522.25 2539.83 C 1529.72 2551.52 1538.15 2566.4 1541.87 2581.03 C 1543.15 2586 1545.06 2588.98 1547.82 2591.7 C 1551.91 2595.75 1558.8 2598.96 1567.69 2602.56 C 1576.51 2606.2 1587.11 2610.36 1597.74 2617.66 C 1605.58 2623.06 1611.75 2630.54 1617.01 2638.89 C 1624.88 2651.44 1630.76 2666.14 1635.83 2680.09 C 1640.87 2694.01 1645.11 2707.26 1649.03 2716.2 C 1651.06 2720.8 1654.33 2724.36 1659.17 2727.83 C 1666.37 2733.02 1676.94 2737.31 1688.1 2742.85 C 1699.22 2748.42 1711.13 2755.48 1720.26 2767.39 C 1731.9 2782.71 1737.61 2800.81 1743.33 2814.84 C 1746.13 2821.86 1748.94 2827.83 1751.8 2831.73 C 1753.22 2833.7 1754.62 2835.14 1755.95 2836.12 C 1757.29 2837.1 1758.54 2837.68 1760.07 2838.02 C 1764.85 2839.04 1767.89 2843.75 1766.87 2848.52 C 1765.84 2853.29 1761.14 2856.33 1756.37 2855.31"/>
      <path id="path28" style="fill:#8e481e;fill-opacity:1;fill-rule:nonzero;stroke:none" d="M 833.434 2817.53 C 832.422 2817.26 791.66 2807.15 749.016 2778.87 C 730.777 2766.79 714.059 2761.8 699.176 2757.61 C 691.723 2755.5 684.773 2753.71 677.961 2750.86 C 674.563 2749.43 671.137 2747.66 668.012 2745.32 C 664.887 2743 662.195 2740.09 660.461 2737 C 658.203 2733.01 656.484 2729.85 654.688 2727.24 C 651.953 2723.33 649.355 2720.48 642.887 2716.03 C 636.426 2711.63 625.992 2705.96 609.148 2698.2 C 598.102 2693.12 590.609 2690.27 584.98 2688.34 C 580.746 2686.89 577.527 2685.95 574.188 2684.86 C 569.285 2683.33 563.453 2680.88 558.164 2676.98 C 552.836 2673.12 547.621 2668.18 539.625 2660.1 C 525.953 2646.23 516.277 2637.84 505.93 2631.3 C 495.582 2624.76 483.824 2619.57 465.121 2612.64 C 425.41 2597.89 398.645 2580.44 398.043 2580.06 C 393.191 2576.9 391.863 2572 395.066 2569.1 C 398.277 2566.21 404.801 2566.42 409.648 2569.58 L 409.84 2569.7 C 412.234 2571.25 436.5 2586.45 470.582 2599.07 C 489.91 2606.24 504.121 2612.33 517.195 2620.6 C 530.266 2628.87 541.461 2638.82 555.609 2653.16 C 562.41 2660.07 566.887 2664.2 569.84 2666.47 C 572.09 2668.19 573.254 2668.83 574.641 2669.46 C 576.617 2670.41 580.461 2671.47 587.32 2673.71 C 594.141 2675.96 603.48 2679.4 616.871 2685.58 C 640.281 2696.39 653.492 2703.88 662.676 2711.69 C 667.223 2715.57 670.527 2719.46 673.066 2723.18 C 675.621 2726.92 677.488 2730.46 679.641 2734.22 L 681.129 2735.89 C 682.227 2736.76 685.066 2738.15 689.828 2739.66 C 704.094 2744.36 731.848 2749.22 760.828 2768.52 C 779.879 2781.18 798.754 2789.85 812.793 2795.32 C 819.809 2798.05 825.605 2799.98 829.586 2801.21 C 831.578 2801.83 833.109 2802.27 834.117 2802.55 L 835.219 2802.84 L 835.453 2802.91 L 835.469 2802.91 C 841.25 2804.35 845.484 2808.78 844.922 2812.82 C 844.359 2816.86 839.215 2818.97 833.434 2817.53"/>
      <path id="path30" style="fill:#8e481e;fill-opacity:1;fill-rule:nonzero;stroke:none" d="M 980.93 2833.25 C 971.285 2831 962.844 2826.93 955.449 2822.34 C 944.324 2815.42 934.941 2807.27 924.527 2799.58 C 914.125 2791.86 902.953 2784.6 888.699 2778.94 C 867.418 2770.48 852.617 2764.75 839.645 2757.67 C 826.641 2750.6 816.215 2742.16 805.523 2730.26 C 795.688 2719.38 785.641 2709.92 773.793 2701.95 C 761.926 2693.99 748.219 2687.36 730.156 2682.12 C 708.027 2675.75 692.051 2664.96 678.656 2653.66 C 665.168 2642.29 653.508 2630.25 638.484 2619.03 C 624.363 2608.51 611.934 2604.43 598.559 2600.21 C 591.914 2598.1 585.063 2596.04 578.059 2592.98 C 571.078 2589.94 563.945 2585.72 557.961 2579.91 C 554.047 2576.14 554.359 2571.43 558.656 2569.4 C 562.953 2567.37 569.609 2568.78 573.52 2572.55 C 577.043 2575.91 580.574 2578.04 585.25 2580.11 C 592.195 2583.21 601.824 2585.68 613.363 2589.68 C 624.867 2593.69 638.223 2599.54 651.609 2609.6 C 668.594 2622.35 680.813 2635 692.938 2645.14 C 705.168 2655.35 716.555 2662.9 733.383 2667.81 C 754.285 2673.85 771.422 2682.04 785.754 2691.7 C 800.105 2701.36 811.621 2712.36 822.188 2724.04 C 831.898 2734.71 839.094 2740.38 849.281 2746 C 859.492 2751.62 873.453 2757.17 894.84 2765.63 C 918.523 2775.03 934.836 2787.85 948.199 2798.22 C 954.883 2803.42 960.879 2808.03 966.48 2811.49 C 972.113 2814.97 977.125 2817.25 982.551 2818.52 C 988.344 2819.88 992.68 2824.27 992.23 2828.34 C 991.785 2832.4 986.723 2834.6 980.93 2833.25"/>
      <path id="path32" style="fill:#8e481e;fill-opacity:1;fill-rule:nonzero;stroke:none" d="M 1163.34 2847.75 C 1149.1 2847.7 1131.85 2843.03 1114.16 2834.04 C 1096.49 2825.02 1078.47 2811.5 1063.55 2793.34 C 1057.19 2785.62 1050.87 2780.04 1044.49 2775.62 C 1034.92 2769 1024.86 2764.8 1013.34 2760.63 C 1001.88 2756.47 989.059 2752.49 975.473 2746.1 C 965.84 2741.57 958.043 2736.14 951.578 2730.53 C 941.871 2722.09 934.926 2713.34 927.797 2705.43 C 920.676 2697.49 913.555 2690.48 904.02 2684.68 C 898.184 2681.11 889.801 2677.72 880.059 2674.59 C 865.438 2669.86 848.035 2665.71 831.449 2660.46 C 823.145 2657.82 815.004 2654.89 807.383 2651.28 C 799.773 2647.67 792.602 2643.33 786.762 2637.87 C 773.043 2624.9 765.113 2610.37 755.941 2598.64 C 751.418 2592.77 746.73 2587.69 741.563 2583.79 C 736.355 2579.88 730.859 2577.03 723.258 2575.05 C 717.48 2573.57 713.305 2569.11 713.93 2565.09 C 714.563 2561.06 719.758 2559 725.531 2560.49 C 737.18 2563.45 747.043 2568.53 754.805 2574.45 C 766.5 2583.37 773.949 2593.77 780.938 2603.65 C 787.855 2613.56 794.316 2623.05 802.063 2630.26 C 806.301 2634.25 812.883 2637.98 821.477 2641.44 C 834.313 2646.64 851.035 2650.95 867.66 2655.62 C 884.313 2660.38 900.98 2665.36 914.855 2673.71 C 932.305 2684.37 942.371 2696.89 951.832 2707.58 C 956.559 2712.95 961.129 2717.93 966.152 2722.28 C 971.191 2726.63 976.609 2730.36 983.441 2733.59 C 998.223 2740.61 1014.06 2744.76 1031.09 2751.82 C 1039.57 2755.36 1048.29 2759.71 1056.74 2765.56 C 1065.21 2771.41 1073.33 2778.7 1080.88 2787.9 C 1093.77 2803.59 1108.91 2814.76 1123.01 2821.96 C 1137.09 2829.19 1150.22 2832.28 1158.25 2832.23 C 1163.88 2832.23 1169.59 2835.7 1171 2839.99 C 1172.41 2844.28 1168.98 2847.75 1163.34 2847.75"/>
      <path id="path34" style="fill:#8e481e;fill-opacity:1;fill-rule:nonzero;stroke:none" d="M 1267.38 2843.34 C 1262.41 2842.58 1257.59 2841.02 1253.31 2838.97 C 1245.76 2835.37 1239.83 2830.55 1234.49 2825.38 C 1226.49 2817.59 1219.56 2808.67 1212 2799.88 C 1204.49 2791.09 1196.44 2782.5 1187.2 2775.59 C 1173.9 2765.55 1156.35 2759.93 1137.97 2754.09 C 1128.82 2751.15 1119.56 2748.15 1110.67 2744.07 C 1101.82 2740.02 1093.17 2734.68 1086.64 2727.44 C 1075.76 2715.36 1063.85 2698.59 1050.37 2683 C 1043.66 2675.23 1036.62 2667.81 1029.46 2661.62 C 1022.31 2655.42 1015.08 2650.52 1008.29 2647.51 C 992.68 2640.52 977.242 2637.17 962.164 2632.47 C 954.645 2630.09 947.094 2627.29 939.98 2623.09 C 932.867 2618.91 926.488 2613.24 921.98 2606.32 C 915.652 2596.6 902.793 2584.27 891.602 2574.79 C 886.012 2570.02 880.836 2565.92 877.086 2563.02 C 875.211 2561.58 873.691 2560.43 872.652 2559.66 L 871.469 2558.78 L 871.105 2558.51 C 866.48 2555.17 865.59 2550.28 869.109 2547.6 C 872.637 2544.93 879.238 2545.47 883.863 2548.82 C 884.055 2548.96 894.027 2556.18 906.023 2566.39 C 918.023 2576.66 932.051 2589.72 940.559 2602.56 C 943.473 2606.92 946.543 2609.55 950.512 2611.93 C 956.41 2615.49 965.289 2618.3 976.586 2621.46 C 987.832 2624.66 1001.27 2628.31 1015.65 2634.72 C 1026.25 2639.46 1035.55 2646.03 1044.03 2653.36 C 1056.74 2664.37 1067.76 2677.28 1077.65 2689.53 C 1087.48 2701.75 1096.2 2713.38 1103.3 2721.22 C 1106.98 2725.26 1111.77 2728.38 1118.36 2731.43 C 1128.18 2735.99 1141.62 2739.76 1156.11 2744.62 C 1170.55 2749.51 1186.35 2755.71 1200.32 2766.16 C 1218.18 2779.61 1230 2795.5 1240.65 2807.82 C 1245.91 2813.98 1250.87 2819.22 1255.3 2822.65 C 1257.51 2824.37 1259.54 2825.64 1261.36 2826.5 C 1263.19 2827.36 1264.8 2827.87 1266.67 2828.17 C 1272.48 2829.07 1277.35 2833.19 1277.54 2837.38 C 1277.74 2841.57 1273.19 2844.24 1267.38 2843.34"/>
      <path id="path36" style="fill:#326d50;fill-opacity:1;fill-rule:nonzero;stroke:none" d="M 1876.84 2799.38 C 1876.84 2799.38 1821.74 2805 1818.37 2844.35 C 1815 2883.71 1877.96 2844.35 1876.84 2799.38"/>
      <path id="path38" style="fill:#56ac78;fill-opacity:1;fill-rule:nonzero;stroke:none" d="M 1832.19 2844 C 1832.19 2844 1858.5 2823.82 1876.84 2799.38 C 1876.84 2799.38 1866.72 2831.57 1832.19 2844"/>
      <path id="path40" style="fill:#326d50;fill-opacity:1;fill-rule:nonzero;stroke:none" d="M 1876.83 2799.38 C 1876.83 2799.38 1926.45 2804.44 1929.49 2839.88 C 1932.52 2875.32 1875.82 2839.88 1876.83 2799.38"/>
      <path id="path42" style="fill:#56ac78;fill-opacity:1;fill-rule:nonzero;stroke:none" d="M 1917.04 2839.57 C 1917.04 2839.57 1893.35 2821.39 1876.83 2799.38 C 1876.83 2799.38 1885.94 2828.37 1917.04 2839.57"/>
      <path id="path44" style="fill:#326d50;fill-opacity:1;fill-rule:nonzero;stroke:none" d="M 1815.69 2713.18 C 1815.69 2713.18 1760.6 2718.81 1757.22 2758.16 C 1753.85 2797.51 1816.81 2758.16 1815.69 2713.18"/>
      <path id="path46" style="fill:#56ac78;fill-opacity:1;fill-rule:nonzero;stroke:none" d="M 1771.04 2757.81 C 1771.04 2757.81 1797.35 2737.63 1815.69 2713.18 C 1815.69 2713.18 1805.57 2745.38 1771.04 2757.81"/>
      <path id="path48" style="fill:#326d50;fill-opacity:1;fill-rule:nonzero;stroke:none" d="M 1815.69 2713.18 C 1815.69 2713.18 1865.3 2718.25 1868.34 2753.69 C 1871.38 2789.13 1814.67 2753.69 1815.69 2713.18"/>
      <path id="path50" style="fill:#56ac78;fill-opacity:1;fill-rule:nonzero;stroke:none" d="M 1855.9 2753.37 C 1855.9 2753.37 1832.2 2735.2 1815.69 2713.18 C 1815.69 2713.18 1824.8 2742.18 1855.9 2753.37"/>
      <path id="path52" style="fill:#326d50;fill-opacity:1;fill-rule:nonzero;stroke:none" d="M 1754.55 2626.99 C 1754.55 2626.99 1699.45 2632.62 1696.08 2671.97 C 1692.71 2711.32 1755.67 2671.97 1754.55 2626.99"/>
      <path id="path54" style="fill:#56ac78;fill-opacity:1;fill-rule:nonzero;stroke:none" d="M 1709.89 2671.62 C 1709.89 2671.62 1736.21 2651.43 1754.55 2626.99 C 1754.55 2626.99 1744.43 2659.18 1709.89 2671.62"/>
      <path id="path56" style="fill:#326d50;fill-opacity:1;fill-rule:nonzero;stroke:none" d="M 1754.54 2626.99 C 1754.54 2626.99 1804.16 2632.06 1807.2 2667.5 C 1810.23 2702.93 1753.53 2667.5 1754.54 2626.99"/>
      <path id="path58" style="fill:#56ac78;fill-opacity:1;fill-rule:nonzero;stroke:none" d="M 1794.75 2667.18 C 1794.75 2667.18 1771.06 2649 1754.54 2626.99 C 1754.54 2626.99 1763.65 2655.99 1794.75 2667.18"/>
      <path id="path60" style="fill:#326d50;fill-opacity:1;fill-rule:nonzero;stroke:none" d="M 1693.4 2540.8 C 1693.4 2540.8 1638.31 2546.42 1634.93 2585.77 C 1631.56 2625.13 1694.52 2585.77 1693.4 2540.8"/>
      <path id="path62" style="fill:#56ac78;fill-opacity:1;fill-rule:nonzero;stroke:none" d="M 1648.75 2585.42 C 1648.75 2585.42 1675.06 2565.24 1693.4 2540.8 C 1693.4 2540.8 1683.28 2572.99 1648.75 2585.42"/>
      <path id="path64" style="fill:#326d50;fill-opacity:1;fill-rule:nonzero;stroke:none" d="M 1693.4 2540.8 C 1693.4 2540.8 1743.01 2545.86 1746.05 2581.3 C 1749.09 2616.74 1692.38 2581.3 1693.4 2540.8"/>
      <path id="path66" style="fill:#56ac78;fill-opacity:1;fill-rule:nonzero;stroke:none" d="M 1733.61 2580.99 C 1733.61 2580.99 1709.91 2562.81 1693.4 2540.8 C 1693.4 2540.8 1702.51 2569.79 1733.61 2580.99"/>
      <path id="path522" style="fill-opacity: 1; fill-rule: nonzero; stroke: none; fill: rgb(179, 239, 181);" d="M 2717.795 4448.275 L 2138.145 4562.24 C 2138.145 4562.24 2191.881 4627.363 2122.781 4684.337 C 2053.689 4741.32 1911.649 4704.697 1911.649 4704.697 C 1911.649 4704.697 1980.749 5022.155 1769.618 4961.102 C 1558.486 4900.049 1631.426 4611.083 1631.426 4611.083 L 1228.53 4507.039 L 2717.795 4448.275"/>
      <path id="path68" style="fill:#e68c63;fill-opacity:1;fill-rule:nonzero;stroke:none" d="M 1932.33 4066.61 C 1928.61 4054.26 1924.84 4043.46 1921.19 4034.2 C 1905.17 3993.68 1890.77 3980.66 1890.77 3980.66 L 1833.71 4039.71 C 1833.71 4039.71 1797.44 4028.84 1784.39 4041.27 C 1771.44 4053.69 1749.46 4098.09 1762.96 4123.47 C 1776.37 4148.86 1815.83 4195.06 1831.32 4186.3 C 1836.54 4183.3 1845.16 4173.05 1854.17 4160.66 C 1871.86 4136.5 1891.4 4104.6 1891.4 4104.6 L 1932.33 4066.61"/>
      <path id="path70" style="fill:#686567;fill-opacity:1;fill-rule:nonzero;stroke:none" d="M 2808.09 4401.09 C 2729.18 4314.95 2616.35 4311.86 2616.35 4311.86 C 2616.35 4311.86 2612.73 4325.37 2607.2 4346.11 C 2595.5 4389.39 2575.62 4464.26 2563.07 4512.86 C 2544.67 4584.54 2553.71 4604.21 2573.38 4619.42 C 2623.79 4658.55 2742.05 4497.97 2788.63 4430.12 C 2800.86 4412.46 2808.09 4401.09 2808.09 4401.09"/>
      <path id="path72" style="fill:#a1a1a0;fill-opacity:1;fill-rule:nonzero;stroke:none" d="M 2808.09 4401.09 C 2729.18 4314.95 2616.35 4311.86 2616.35 4311.86 C 2616.35 4311.86 2612.73 4325.37 2607.2 4346.11 C 2652.18 4355.36 2737.8 4377.05 2788.63 4430.12 C 2800.86 4412.46 2808.09 4401.09 2808.09 4401.09"/>
      <path id="path74" style="fill:#653216;fill-opacity:1;fill-rule:nonzero;stroke:none" d="M 1467.25 3938.66 L 2574.02 4601.93 C 2583.55 4607.64 2595.88 4605.04 2602.29 4595.96 C 2609.4 4585.89 2606.47 4571.9 2595.92 4565.53 L 1491.59 3898.21 C 1479.64 3890.99 1464.07 3895.65 1458.07 3908.26 C 1452.84 3919.24 1456.81 3932.4 1467.25 3938.66"/>
      <path id="path76" style="fill:#f9a980;fill-opacity:1;fill-rule:nonzero;stroke:none" d="M 1932.33 4066.61 C 1928.61 4054.26 1924.84 4043.46 1921.19 4034.2 C 1906.08 4050.06 1885.64 4072.09 1879.25 4082.59 C 1871.42 4095.18 1859.92 4138.18 1854.17 4160.66 C 1871.86 4136.5 1891.4 4104.6 1891.4 4104.6 L 1932.33 4066.61"/>
      <path id="path78" style="fill:#f9a980;fill-opacity:1;fill-rule:nonzero;stroke:none" d="M 1738.54 4126.48 C 1737.33 4124.64 1731.85 4112.38 1738.93 4097.31 C 1746 4082.24 1751.37 4073.71 1756.34 4071.79 C 1761.32 4069.87 1770.19 4069.5 1770.84 4081.04 C 1770.84 4081.04 1777.43 4074.35 1785.42 4081.45 C 1793.4 4088.55 1790.27 4096.78 1790.27 4096.78 C 1790.27 4096.78 1799.58 4088.92 1807.9 4097.81 C 1816.23 4106.7 1813.43 4116.71 1813.43 4116.71 C 1813.43 4116.71 1824.55 4108.07 1833.01 4114.76 C 1841.46 4121.45 1836.77 4133.55 1829.1 4151.25 C 1821.44 4168.93 1830.95 4180.1 1827.43 4187.42 C 1823.91 4194.73 1802.85 4199.25 1796.34 4182.06 C 1796.34 4182.06 1772.14 4187.28 1769.29 4160.57 C 1769.29 4160.57 1747.14 4153.52 1746.8 4136.7 L 1738.54 4126.48"/>
      <path id="path80" style="fill:#f9a980;fill-opacity:1;fill-rule:nonzero;stroke:none" d="M 1889.64 4089.24 L 1888.76 4087.5 C 1883.16 4077.75 1858.18 4055.86 1841.33 4066.88 C 1834.44 4071.37 1833.18 4081.6 1834.3 4092.41 C 1835.21 4101.59 1837.83 4111.25 1840.09 4118.32 C 1842.04 4124.55 1843.7 4128.7 1843.7 4128.7 C 1843.7 4128.7 1810.64 4113.48 1795.75 4119.44 C 1790.64 4121.5 1789.58 4128.4 1793.83 4131.95 C 1796.49 4134.17 1800 4137.1 1804 4140.3 C 1814.77 4148.93 1828.74 4159.2 1836.54 4161.32 C 1850.62 4165.18 1872.02 4158.91 1885.91 4152.15 C 1899.88 4145.48 1892.89 4097.72 1889.64 4089.24"/>
      <path id="path82" style="fill:#e68c63;fill-opacity:1;fill-rule:nonzero;stroke:none" d="M 1843.7 4128.7 C 1843.7 4128.7 1810.64 4113.48 1795.75 4119.44 C 1790.64 4121.5 1789.58 4128.4 1793.83 4131.95 C 1796.49 4134.17 1800 4137.1 1804 4140.3 C 1803.64 4135.59 1804.19 4123.04 1821.3 4131.26 C 1842.11 4141.31 1855.22 4140.6 1855.22 4140.6 C 1855.22 4140.6 1846.95 4131.62 1840.09 4118.32 C 1842.04 4124.55 1843.7 4128.7 1843.7 4128.7"/>
      <path id="path84" style="fill:#e68c63;fill-opacity:1;fill-rule:nonzero;stroke:none" d="M 1888.76 4087.5 C 1883.16 4077.75 1858.18 4055.86 1841.33 4066.88 C 1834.44 4071.37 1833.18 4081.6 1834.3 4092.41 C 1841.1 4080.04 1869.93 4077 1888.76 4087.5"/>
      <path id="path86" style="fill:#d7c3b3;fill-opacity:1;fill-rule:nonzero;stroke:none" d="M 2162.6 4047.74 C 2129.18 3981.06 2082.42 3830.7 2034.38 3834.55 C 1986.43 3838.4 1868.3 3989.02 1868.3 3989.02 C 1867.61 4011.24 1873.42 4027.82 1881.97 4040.04 C 1902.92 4069.88 1940.1 4074.58 1940.1 4074.58 L 2009.34 4016.46 C 2009.34 4016.46 2040.97 4081.25 2063.19 4165.27 C 2085.5 4249.3 2118.33 4275.12 2118.33 4275.12 L 2129.18 4269.47 L 2134.57 4266.74 C 2176.28 4236.14 2196.03 4114.41 2162.6 4047.74"/>
      <path id="path88" style="fill:#c2ae9d;fill-opacity:1;fill-rule:nonzero;stroke:none" d="M 2162.6 4047.74 C 2129.18 3981.06 2082.42 3830.7 2034.38 3834.55 C 1986.43 3838.4 1868.3 3989.02 1868.3 3989.02 C 1867.61 4011.24 1873.42 4027.82 1881.97 4040.04 C 1909.58 4015.34 1978.48 3954.31 2005.49 3934.56 C 2039.68 3909.61 2085.33 4019.36 2085.33 4019.36 C 2085.33 4019.36 2041.14 3981.58 2031.9 3979.44 C 2022.59 3977.3 2076.78 4099.8 2099.52 4178.18 C 2108.15 4207.84 2116.53 4241.35 2129.18 4269.47 L 2134.57 4266.74 C 2176.28 4236.14 2196.03 4114.41 2162.6 4047.74"/>
      <path id="path90" style="fill:#db7f18;fill-opacity:1;fill-rule:nonzero;stroke:none" d="M 2205.6 2815.97 C 2222.1 2753.4 2220.47 2690.74 2220.47 2690.74 C 2220.47 2690.74 1885.9 2672.62 1882.66 2679.2 C 1880.26 2683.9 1878.73 2702.88 1891.29 2716.98 C 1896.33 2722.62 1903.6 2727.49 1913.94 2730.32 C 1949.41 2739.98 2077.98 2796.9 2086.53 2819.47 L 2086.95 2820.93 C 2090.29 2842.38 2098.5 2982.4 2098.5 2989.07 L 2228.68 2992.31 L 2205.6 2815.97"/>
      <path id="path92" style="fill:#ec9815;fill-opacity:1;fill-rule:nonzero;stroke:none" d="M 2073.88 2772.71 C 2037.54 2744.93 1957.11 2715.01 1920.78 2715.79 C 1907.19 2716.04 1897.7 2716.47 1891.29 2716.98 C 1896.33 2722.62 1903.6 2727.5 1913.94 2730.32 C 1949.41 2739.98 2077.98 2796.9 2086.53 2819.47 L 2087.47 2818.36 C 2087.47 2818.36 2110.21 2800.5 2073.88 2772.71"/>
      <path id="path94" style="fill:#2c546e;fill-opacity:1;fill-rule:nonzero;stroke:none" d="M 2345.62 3768.3 L 2344.42 3759.76 L 2313.22 3536.74 C 2313.22 3536.74 2283.39 3297.82 2278.43 3175.84 C 2273.38 3053.86 2280.91 3041.38 2243.56 2979.15 C 2206.2 2916.92 2094.22 2946.84 2069.26 2984.11 C 2060.71 2996.93 2057.8 3011.72 2057.8 3031.12 C 2057.97 3068.31 2069.34 3122.25 2074.3 3210.72 C 2079.52 3304.66 2100.55 3541.01 2110.21 3677.27 C 2114.31 3735.91 2116.36 3776 2114.14 3778.22 L 2338.86 3768.56 L 2345.62 3768.3"/>
      <g id="g96" transform="matrix(1, 0, 0, 1, 0, -97.500008)">
        <g clip-path="url(#clipPath102)" id="g98">
          <path id="path104" style="fill:#1f3a4f;fill-opacity:1;fill-rule:nonzero;stroke:none" d="m 2085.02,3286.45 h 111.531 v 80.5 H 2085.02 Z"/>
        </g>
      </g>
      <path id="path106" style="fill:#1f3a4f;fill-opacity:1;fill-rule:nonzero;stroke:none" d="M 2169.38 2943.22 C 2127.77 2943.22 2083.78 2962.42 2069.26 2984.11 C 2060.71 2996.93 2057.8 3011.72 2057.8 3031.12 C 2063.97 3030.84 2069.95 3030.69 2075.7 3030.69 C 2200.98 3030.69 2228.84 3098.49 2224.92 3242.17 C 2221.42 3371.08 2250.65 3447.41 2254.5 3457.33 C 2254.07 3456.56 2253.47 3455.36 2252.7 3453.74 C 2243.6 3435.53 2198.94 3365.61 2180.69 3365.6 C 2173.23 3365.6 2170.19 3377.25 2175.77 3408.86 C 2195 3517.85 2295.44 3611.88 2227.06 3628.97 C 2181.24 3640.43 2135.42 3663.42 2110.21 3677.27 C 2113.15 3719.42 2115.04 3751.98 2115.05 3767.79 C 2115.05 3773.97 2114.76 3777.59 2114.14 3778.22 L 2330.41 3768.92 L 2261.08 3755.83 L 2261.08 3755.83 C 2262.52 3751.37 2287.84 3664.7 2316.82 3562.51 L 2313.22 3536.74 C 2313.22 3536.74 2283.39 3297.82 2278.43 3175.84 C 2273.38 3053.86 2280.91 3041.38 2243.56 2979.15 C 2227.94 2953.14 2199.27 2943.22 2169.38 2943.22"/>
      <path id="path108" style="fill:#db7f18;fill-opacity:1;fill-rule:nonzero;stroke:none" d="M 2502.28 2982.43 L 2553.37 2751.7 C 2553.37 2751.7 2533.6 2662.71 2538.54 2628.1 C 2543.49 2593.5 2604.46 2581.96 2642.37 2586.9 C 2680.27 2591.85 2701.7 2623.16 2701.7 2633.05 C 2701.7 2642.93 2653.91 2753.36 2653.91 2753.36 C 2653.91 2753.36 2645.67 2961.01 2637.43 3008.8 C 2629.18 3056.59 2502.28 2982.43 2502.28 2982.43"/>
      <path id="path110" style="fill:#ec9815;fill-opacity:1;fill-rule:nonzero;stroke:none" d="M 2569.69 2747.81 C 2569.69 2747.81 2571.11 2680.14 2573.25 2653.78 C 2575.39 2627.43 2655.88 2643.81 2665.14 2665.89 C 2674.4 2687.97 2653.75 2729.29 2645.91 2742.11 C 2638.08 2754.94 2631.67 2740.69 2569.69 2747.81"/>
      <path id="path112" style="fill:#2c546e;fill-opacity:1;fill-rule:nonzero;stroke:none" d="M 2649.33 3028.98 L 2649.33 3027.96 C 2648.64 2921.96 2539.57 2936.92 2497.43 2959.23 C 2455.12 2981.63 2427.76 3138.49 2395.37 3272.94 C 2363.91 3403.73 2263.98 3746.85 2261.08 3755.83 L 2485.03 3798.13 C 2485.03 3798.13 2492.9 3776.34 2503.5 3745.82 C 2508.29 3731.89 2513.58 3716.16 2518.97 3699.83 C 2532.47 3658.63 2546.32 3613.67 2552.31 3584.95 C 2553.34 3579.99 2554.19 3575.46 2554.7 3571.62 C 2562.22 3516.82 2649.33 3136.01 2649.33 3028.98"/>
      <path id="path114" style="fill:#1f3a4f;fill-opacity:1;fill-rule:nonzero;stroke:none" d="M 2512.51 3569.43 C 2507.43 3569.43 2502.5 3570.23 2499.91 3571.96 C 2493.5 3576.23 2490.59 3601.87 2490.59 3601.87 C 2490.59 3601.87 2473.5 3606.15 2477.08 3621.87 C 2480.25 3635.72 2511.7 3687.78 2518.97 3699.83 C 2532.47 3658.63 2546.32 3613.67 2552.31 3584.95 C 2543.85 3585.64 2536.92 3586.23 2536.92 3586.23 C 2536.92 3586.23 2531.2 3579.14 2529.06 3574.09 C 2527.79 3571.14 2519.98 3569.43 2512.51 3569.43"/>
      <path id="path116" style="fill:#1f3a4f;fill-opacity:1;fill-rule:nonzero;stroke:none" d="M 2565.49 2943.22 C 2539.55 2943.22 2513.58 2950.68 2497.43 2959.23 C 2455.12 2981.63 2427.76 3138.49 2395.37 3272.94 C 2379.51 3338.86 2346.27 3458.69 2316.82 3562.51 C 2287.84 3664.7 2262.52 3751.37 2261.08 3755.83 L 2485.03 3798.13 C 2485.03 3798.13 2492.9 3776.34 2503.5 3745.82 C 2476.66 3726.5 2429.13 3699.58 2360.23 3686.67 C 2246.29 3665.3 2422.98 3462.97 2449.99 3411.68 C 2461 3390.84 2466.13 3382.23 2464.03 3382.23 C 2460.96 3382.23 2442.49 3400.58 2404.43 3425.96 C 2398.71 3429.77 2394.5 3431.52 2391.6 3431.52 C 2362.02 3431.52 2468.11 3249.5 2478.54 3222.26 C 2481.94 3213.32 2480.88 3210.1 2477.51 3210.1 C 2469.59 3210.1 2448.89 3227.81 2442.89 3230.81 C 2442.73 3230.89 2442.59 3230.93 2442.46 3230.93 C 2439.37 3230.93 2443.63 3209.78 2457.21 3188.64 C 2470.8 3167.49 2493.72 3146.35 2527.95 3146.35 C 2536.81 3146.35 2546.43 3147.76 2556.84 3150.97 C 2572.82 3155.89 2584.48 3157.97 2592.58 3157.97 C 2631.49 3157.97 2588.65 3110.05 2549.75 3098.31 C 2516.78 3088.34 2571.96 3023.79 2626.56 3023.79 C 2634.24 3023.79 2641.91 3025.07 2649.33 3027.96 C 2648.91 2962.58 2607.24 2943.22 2565.49 2943.22"/>
      <path id="path118" style="fill:#d7c3b3;fill-opacity:1;fill-rule:nonzero;stroke:none" d="M 2492.39 3757.62 C 2467.51 3739.84 2178.59 3725.65 2121.91 3748.73 C 2065.16 3771.72 2100.63 3931.31 2098.84 4023.46 C 2097.12 4115.61 2098.84 4202.46 2118.33 4275.12 C 2118.33 4275.12 2231.76 4360.25 2288.52 4374.36 C 2345.27 4388.55 2487 4296.4 2495.89 4287.51 C 2497.17 4286.31 2498.37 4278.11 2499.48 4264.86 C 2505.29 4196.9 2509.57 3994.91 2514.53 3900.88 C 2515.38 3884.04 2516.24 3870.71 2517.18 3862.16 C 2524.27 3796.6 2517.18 3775.31 2492.39 3757.62"/>
      <path id="path120" style="fill:#c2ae9d;fill-opacity:1;fill-rule:nonzero;stroke:none" d="M 2407.28 4069.91 C 2407.28 4069.91 2373.09 3981.58 2293.3 3944.54 C 2213.52 3907.5 2166.51 3955.93 2133.74 3971.61 C 2100.97 3987.27 2143.71 3819.17 2266.24 3813.47 C 2388.75 3807.77 2468.54 4162.51 2407.28 4069.91"/>
      <path id="path122" style="fill:#c2ae9d;fill-opacity:1;fill-rule:nonzero;stroke:none" d="M 2514.53 3900.88 C 2495.12 3932.34 2476.57 3968.93 2463.58 4008.67 C 2422.21 4135.44 2457.08 4266.74 2480.67 4269.39 C 2483.33 4269.64 2490.08 4268.19 2499.48 4264.86 C 2505.29 4196.9 2509.57 3994.91 2514.53 3900.88"/>
      <path id="path124" style="fill:#f9a980;fill-opacity:1;fill-rule:nonzero;stroke:none" d="M 2642.57 3805.74 L 2634.97 3765.57 L 2627.87 3728.3 C 2622.92 3692.57 2622.66 3632.22 2618.9 3621.87 L 2618.3 3620.68 C 2613.85 3615.46 2602.74 3616.24 2602.74 3616.24 C 2602.74 3616.24 2595.39 3606.66 2589.49 3604.44 C 2583.59 3602.22 2574.02 3605.89 2574.02 3605.89 C 2574.02 3605.89 2564.45 3597.08 2557.01 3597.77 C 2549.66 3598.54 2537.09 3611.79 2537.09 3611.79 C 2537.09 3611.79 2533.42 3604.44 2528.29 3600 C 2523.16 3595.55 2505.38 3598.54 2500.25 3602.98 C 2495.63 3606.92 2501.62 3630.25 2502.82 3634.61 L 2502.99 3635.3 L 2485.29 3645.89 C 2485.29 3645.89 2483.5 3661.97 2486.23 3678.89 L 2486.23 3678.97 C 2487.34 3685.9 2489.31 3692.91 2492.39 3699.06 C 2502.99 3720.35 2556.16 3741.64 2556.16 3741.64 L 2564.36 3779.41 L 2573.85 3823.18 L 2642.57 3805.74"/>
      <path id="path126" style="fill:#e68c63;fill-opacity:1;fill-rule:nonzero;stroke:none" d="M 2510.17 3671.97 C 2509.4 3668.21 2502.9 3637.52 2502.99 3635.3 L 2485.29 3645.89 C 2485.29 3645.89 2483.5 3661.97 2486.23 3678.89 C 2488.37 3672.14 2492.13 3662.73 2497 3659.58 C 2504.1 3655.04 2509.22 3669.32 2510.17 3671.97"/>
      <path id="path128" style="fill:#e68c63;fill-opacity:1;fill-rule:nonzero;stroke:none" d="M 2618.9 3621.87 L 2618.3 3620.68 C 2613.85 3615.46 2602.74 3616.24 2602.74 3616.24 C 2602.74 3616.24 2595.39 3606.66 2589.49 3604.44 C 2583.59 3602.22 2574.02 3605.89 2574.02 3605.89 C 2574.02 3605.89 2564.45 3597.08 2557.01 3597.77 C 2549.66 3598.54 2537.09 3611.79 2537.09 3611.79 L 2541.88 3624.36 C 2541.88 3624.36 2556.5 3615.46 2565.82 3617.26 C 2575.04 3618.97 2580.69 3623.24 2580.69 3623.24 C 2580.69 3623.24 2592.83 3616.15 2603.17 3623.58 C 2603.17 3623.58 2611.55 3620.6 2618.9 3621.87"/>
      <path id="path130" style="fill:#e68c63;fill-opacity:1;fill-rule:nonzero;stroke:none" d="M 2642.57 3805.74 L 2634.97 3765.57 C 2608.21 3764.8 2579.32 3773.86 2564.36 3779.41 L 2573.85 3823.18 L 2642.57 3805.74"/>
      <path id="path132" style="fill:#d7c3b3;fill-opacity:1;fill-rule:nonzero;stroke:none" d="M 2653.6 3798.31 C 2602.23 3764.63 2543.76 3808.99 2543.76 3808.99 L 2545.56 3821.82 L 2565.04 3961.41 C 2565.04 3961.41 2545.3 3981.15 2519.48 4013.89 C 2502.3 4035.6 2482.39 4063.13 2464.01 4094.33 C 2417.93 4172.37 2476.32 4299.65 2495.89 4287.51 C 2533.08 4264.52 2690.87 4034.06 2692.67 4005.68 C 2694.38 3977.39 2653.6 3798.31 2653.6 3798.31"/>
      <path id="path134" style="fill:#c2ae9d;fill-opacity:1;fill-rule:nonzero;stroke:none" d="M 2635.22 3960.21 C 2661.89 3970.89 2636.25 3928.15 2602.06 3922.26 C 2576.84 3917.98 2555.21 3854.81 2545.56 3821.82 L 2565.04 3961.41 C 2565.04 3961.41 2545.3 3981.15 2519.48 4013.89 C 2532.39 4004.14 2547.61 3994.23 2560.94 3989.61 C 2591.97 3978.93 2619.75 3982.09 2642.75 3992.77 C 2665.65 4003.46 2657.62 3970.89 2615.99 3966.62 C 2574.36 3962.34 2608.55 3949.52 2635.22 3960.21"/>
      <path id="path136" style="fill:#2c546e;fill-opacity:1;fill-rule:nonzero;stroke:none" d="M 2164.47 4307.82 C 2164.47 4307.82 2140.2 4038.94 2155.14 3734.61 L 2192.48 3730.87 C 2192.48 3730.87 2170.07 4145.39 2196.22 4328.36 L 2164.47 4307.82"/>
      <path id="path138" style="fill:#2c546e;fill-opacity:1;fill-rule:nonzero;stroke:none" d="M 2401.39 4350.64 C 2401.39 4350.64 2355.47 4105.8 2388.36 3734.61 L 2426.15 3738.81 C 2426.15 3738.81 2407.2 4149.29 2433.34 4332.27 L 2401.39 4350.64"/>
      <path id="path140" style="fill:#f9a980;fill-opacity:1;fill-rule:nonzero;stroke:none" d="M 2336.64 4351.79 C 2336.64 4351.79 2299.2 4297.6 2271.76 4300.25 C 2244.32 4302.98 2244.32 4335.72 2244.32 4335.72 C 2244.66 4341.02 2244.92 4345.98 2245 4350.68 C 2245.69 4385.47 2238.94 4404.71 2238.94 4404.71 C 2272.36 4450.86 2340.66 4464.28 2340.66 4464.28 C 2338.35 4448.3 2336.9 4433.6 2336.04 4420.61 C 2333.13 4377.44 2336.64 4351.79 2336.64 4351.79"/>
      <path id="path142" style="fill:#e68c63;fill-opacity:1;fill-rule:nonzero;stroke:none" d="M 2340.66 4464.28 C 2338.35 4448.3 2336.9 4433.6 2336.04 4420.61 C 2325.96 4390.86 2301.77 4358.55 2245 4350.68 C 2245.69 4385.47 2238.94 4404.71 2238.94 4404.71 C 2272.36 4450.86 2340.66 4464.28 2340.66 4464.28"/>
      <path id="path144" style="fill:#f9a52b;fill-opacity:1;fill-rule:nonzero;stroke:none" d="M 2182.83 4657.99 C 2182.83 4657.99 2200.11 4690.56 2211.41 4721.14 C 2211.41 4721.14 2251.96 4765.67 2339.03 4725.13 C 2426.1 4684.58 2420.79 4618.12 2420.79 4618.12 C 2420.79 4618.12 2396.86 4586.21 2384.23 4549.65 C 2384.23 4549.65 2252.62 4563.61 2182.83 4657.99"/>
      <path id="path146" style="fill:#ec9815;fill-opacity:1;fill-rule:nonzero;stroke:none" d="M 2107.06 4640.71 C 2088.45 4595.51 2180.83 4576.9 2242.65 4556.3 C 2304.47 4535.69 2395.53 4455.93 2416.13 4525.72 C 2436.74 4595.51 2322.41 4679.93 2221.38 4679.93 C 2120.35 4679.93 2107.06 4640.71 2107.06 4640.71"/>
      <path id="path148" style="fill:#f9a980;fill-opacity:1;fill-rule:nonzero;stroke:none" d="M 2339.55 4526.52 C 2333.65 4459.59 2324.33 4397.44 2258.6 4392.74 C 2192.87 4388.04 2171.75 4410.35 2174.15 4457.27 C 2175.77 4490.1 2168.84 4518.91 2164.82 4543.7 C 2163.12 4554.3 2162.01 4564.3 2162.35 4573.44 C 2163.54 4603.96 2183.2 4626.1 2228.08 4628.58 C 2250.39 4629.77 2271.5 4625.84 2289.29 4617.21 C 2322.03 4601.31 2343.39 4569.86 2339.55 4526.52"/>
      <path id="path150" style="fill:#e68c63;fill-opacity:1;fill-rule:nonzero;stroke:none" d="M 2289.29 4617.21 C 2288.77 4610.45 2286.98 4603.45 2283.73 4596.01 C 2253.9 4528.39 2182.52 4539.68 2164.82 4543.7 C 2163.12 4554.3 2162.01 4564.3 2162.35 4573.44 C 2163.54 4603.96 2183.2 4626.1 2228.08 4628.58 C 2250.39 4629.77 2271.5 4625.84 2289.29 4617.21"/>
      <path id="path152" style="fill:#b0aca9;fill-opacity:1;fill-rule:nonzero;stroke:none" d="M 2184.58 4442.31 C 2204.83 4446.33 2210.82 4460.52 2210.82 4460.52 C 2210.82 4460.52 2213.21 4448.81 2239.02 4446.33 C 2247.66 4445.57 2253.38 4442.4 2256.46 4438.47 C 2263.55 4429.49 2256.97 4416.33 2239.71 4416.76 C 2214.83 4417.44 2218.85 4433.6 2218.85 4433.6 L 2208.08 4433 C 2208.08 4433 2208.08 4416.76 2194.06 4420.18 C 2179.96 4423.51 2184.58 4442.31 2184.58 4442.31 Z M 2266.81 4633.63 L 2266.63 4633.71 C 2236.97 4665.16 2139.7 4657.04 2132.6 4607.21 C 2132.43 4606.01 2132.34 4604.81 2132.26 4603.53 C 2129.52 4550.45 2167.13 4551.82 2217.57 4556.52 C 2267.92 4561.22 2285.35 4596.87 2285.35 4596.87 C 2285.35 4596.87 2288.69 4553.1 2296.81 4541.13 C 2299.63 4536.94 2303.9 4531.9 2308.35 4527.2 C 2316.72 4518.22 2325.62 4510.19 2325.62 4510.19 L 2323.99 4491.46 L 2323.65 4487.28 C 2310.83 4457.71 2273.3 4448.98 2273.3 4448.98 C 2273.3 4448.98 2256.46 4462.49 2239.71 4469.84 C 2222.87 4477.27 2210.82 4475.31 2210.82 4475.31 C 2210.82 4475.31 2202.01 4476.59 2186.03 4469.24 C 2169.87 4461.81 2164.65 4445.65 2163.8 4443.68 C 2160.72 4435.9 2158.58 4428.81 2157.56 4422.31 C 2151.41 4384.1 2181.92 4368.55 2253.13 4373.16 C 2262.02 4373.76 2269.97 4375.21 2277.06 4377.44 C 2288.09 4380.94 2297.07 4386.24 2304.33 4392.4 C 2336.04 4419.49 2335.7 4465.23 2335.7 4465.23 C 2368.7 4499.42 2370.58 4562.59 2370.58 4562.59 C 2336.81 4617.81 2270.91 4632.77 2266.81 4633.63"/>
      <path id="path154" style="fill:#959392;fill-opacity:1;fill-rule:nonzero;stroke:none" d="M 2292.96 4397.95 C 2292.96 4397.95 2286.04 4387.18 2277.06 4377.44 C 2269.97 4375.21 2262.02 4373.76 2253.13 4373.16 C 2181.92 4368.55 2151.41 4384.1 2157.56 4422.31 C 2158.58 4414.96 2161.06 4402.65 2166.2 4397.61 C 2173.03 4390.68 2182.01 4390.43 2183.46 4390.43 C 2183.03 4390.51 2182.09 4391.71 2181.49 4400.09 C 2181.49 4400.09 2187.14 4390.43 2205 4386.16 C 2205 4386.16 2200.73 4393.68 2201.07 4405.39 C 2201.07 4405.39 2211.41 4391.54 2228.85 4385.13 L 2227.74 4395.82 C 2227.74 4395.82 2233.81 4386.93 2246.63 4384.02 C 2258.85 4381.37 2273.3 4394.45 2274.67 4395.64 C 2274.58 4394.62 2273.81 4390.51 2269.45 4385.47 C 2269.45 4385.47 2277.66 4386.58 2292.96 4397.95"/>
      <path id="path156" style="fill:#959392;fill-opacity:1;fill-rule:nonzero;stroke:none" d="M 2268.17 4431.37 C 2268.17 4431.37 2263.73 4435.82 2256.46 4438.47 C 2253.38 4442.4 2247.66 4445.57 2239.02 4446.33 C 2213.21 4448.81 2210.82 4460.52 2210.82 4460.52 C 2210.82 4460.52 2204.83 4446.33 2184.58 4442.31 C 2184.58 4442.31 2182.01 4440.86 2173.46 4445.31 C 2173.46 4445.31 2179.53 4444.96 2187.3 4451.38 L 2185.6 4448.47 C 2185.6 4448.47 2203.72 4454.54 2207.99 4467.96 L 2209.45 4464.2 L 2210.3 4470.78 C 2210.3 4470.78 2218.16 4456.33 2235.26 4455.65 C 2235.26 4455.65 2232.78 4454.71 2229.02 4454.37 C 2229.02 4454.37 2240.9 4451.89 2253.38 4448.13 C 2265.86 4444.45 2268.17 4431.37 2268.17 4431.37"/>
      <path id="path158" style="fill:#959392;fill-opacity:1;fill-rule:nonzero;stroke:none" d="M 2370.58 4562.59 C 2370.58 4562.59 2368.7 4499.42 2335.7 4465.23 C 2335.7 4465.23 2336.04 4419.49 2304.33 4392.4 C 2315.44 4410.09 2318.26 4428.55 2318.26 4428.55 C 2310.14 4418.64 2300.4 4412.48 2298.09 4411.12 C 2299.37 4412.14 2303.39 4415.82 2311.08 4426.42 C 2320.74 4439.58 2324.64 4462.76 2324.64 4462.76 L 2318.95 4458.81 C 2323.48 4469.41 2324.33 4481.72 2323.99 4491.46 C 2323.74 4501.47 2322.2 4508.73 2322.2 4508.73 C 2316.55 4514.8 2312.02 4521.13 2308.35 4527.2 C 2294.67 4549.59 2292.96 4569.59 2292.96 4569.59 C 2303.99 4548.23 2323.91 4532.58 2323.91 4532.58 C 2304.33 4556.77 2297.58 4592.42 2297.58 4592.42 C 2313.65 4555.32 2337.5 4540.79 2337.5 4540.79 C 2324.67 4558.23 2317.5 4581.39 2317.5 4581.39 C 2328.52 4569.68 2345.19 4553.61 2347.24 4551.64 C 2346.9 4552.76 2343.65 4560.54 2329.98 4582.42 C 2315.44 4605.5 2269.62 4632 2266.81 4633.63 C 2270.91 4632.77 2336.81 4617.81 2370.58 4562.59"/>
      <path id="path160" style="fill:#959392;fill-opacity:1;fill-rule:nonzero;stroke:none" d="M 2285.35 4596.87 C 2285.35 4596.87 2267.92 4561.22 2217.57 4556.52 C 2167.13 4551.82 2129.52 4550.45 2132.26 4603.53 C 2132.34 4604.81 2132.43 4606.01 2132.6 4607.21 C 2136.88 4596.27 2144.48 4582.25 2156.19 4575.66 C 2176.45 4564.3 2219.54 4579.94 2230.22 4610.2 C 2230.22 4610.2 2228.85 4582.42 2207.82 4570.71 C 2207.82 4570.71 2249.88 4576.35 2262.28 4613.79 C 2262.28 4613.79 2264.41 4591.31 2245.61 4576.35 C 2245.61 4576.35 2276.89 4584.55 2287.58 4619.09 C 2287.58 4619.09 2288.34 4612.34 2285.35 4596.87"/>
      <path id="path162" style="fill:#f9a980;fill-opacity:1;fill-rule:nonzero;stroke:none" d="M 2327.84 4494.14 C 2328.6 4513.95 2349.44 4527.34 2367.24 4518.61 L 2367.98 4518.23 C 2392.83 4505.47 2366.68 4445.47 2323.7 4458.9 L 2327.84 4494.14"/>
      <path id="path164" style="fill:#e88f67;fill-opacity:1;fill-rule:nonzero;stroke:none" d="M 2344.95 4501.39 C 2344.95 4501.39 2343.08 4495.31 2342.84 4488.05 C 2342.61 4480.79 2334.41 4476.11 2334.41 4476.11 C 2334.41 4476.11 2337.92 4465.57 2357.13 4480.08 C 2376.33 4494.61 2370.48 4507.25 2358.54 4508.66 C 2346.59 4510.06 2344.95 4501.39 2344.95 4501.39"/>
      <path id="path166" style="fill:#57231d;fill-opacity:1;fill-rule:nonzero;stroke:none" d="M 2358.54 4508.66 C 2358.54 4508.66 2347.53 4511.46 2339.8 4496.95 C 2339.8 4496.95 2344.48 4492.96 2340.27 4485.24 C 2336.05 4477.51 2332.77 4473.06 2332.77 4473.06 C 2332.77 4473.06 2345 4480.71 2346.59 4488.52 C 2347.96 4495.23 2345.19 4497.18 2345.19 4497.18 C 2345.19 4497.18 2349.4 4507.95 2358.54 4508.66"/>
      <path id="path168" style="fill:#b0aca9;fill-opacity:1;fill-rule:nonzero;stroke:none" d="M 2174.58 4530.29 C 2174.58 4530.29 2179.87 4542.98 2203.14 4544.57 L 2207.37 4532.4 C 2207.37 4532.4 2184.63 4533.99 2174.58 4530.29"/>
      <path id="path170" style="fill:#57231d;fill-opacity:1;fill-rule:nonzero;stroke:none" d="M 2193.09 4520.24 C 2184.66 4518.98 2183.57 4496.97 2194.68 4496.97 C 2205.78 4496.97 2203.67 4521.83 2193.09 4520.24"/>
      <path id="path172" style="fill:#ffffff;fill-opacity:1;fill-rule:nonzero;stroke:none" d="M 2195.21 4517.27 C 2190.99 4516.64 2190.44 4505.64 2196 4505.64 C 2201.55 4505.64 2200.49 4518.07 2195.21 4517.27"/>
      <path id="path174" style="fill:#b0aca9;fill-opacity:1;fill-rule:nonzero;stroke:none" d="M 2226.93 4531.88 L 2231.16 4545.62 C 2231.16 4545.62 2258.13 4551.97 2277.7 4532.4 C 2277.7 4532.4 2250.2 4538.75 2226.93 4531.88"/>
      <path id="path176" style="fill:#57231d;fill-opacity:1;fill-rule:nonzero;stroke:none" d="M 2236.98 4525 C 2229.58 4523.94 2227.46 4500.68 2240.68 4500.14 C 2253.9 4499.62 2251.79 4527.11 2236.98 4525"/>
      <path id="path178" style="fill:#ffffff;fill-opacity:1;fill-rule:nonzero;stroke:none" d="M 2239.52 4521.55 C 2235.7 4521.01 2234.6 4509.01 2241.43 4508.73 C 2248.24 4508.46 2247.15 4522.64 2239.52 4521.55"/>
      <path id="path180" style="fill:#57231d;fill-opacity:1;fill-rule:nonzero;stroke:none" d="M 2211.6 4519.71 C 2211.6 4519.71 2211.07 4496.45 2203.14 4487.98 C 2195.21 4479.53 2221.12 4479 2221.12 4479 C 2221.12 4479 2210.54 4483.75 2208.96 4486.39 C 2207.37 4489.04 2215.83 4495.92 2211.6 4519.71"/>
      <path id="path182" style="fill:#db7f18;fill-opacity:1;fill-rule:nonzero;stroke:none" d="M 1124.71 2697.25 C 1120.85 2686.78 823.309 2701.11 823.309 2714.12 C 823.309 2757.11 887.031 3001.18 887.031 3001.18 L 1019.54 2957.09 L 955.82 2808.93 C 955.82 2808.93 1097.48 2742.67 1110.49 2736.17 C 1115.34 2733.74 1119.09 2729.11 1121.73 2723.71 C 1126.03 2714.78 1127.13 2703.75 1124.71 2697.25"/>
      <path id="path184" style="fill:#ec9815;fill-opacity:1;fill-rule:nonzero;stroke:none" d="M 1121.73 2723.71 C 1114.9 2717.87 1107.62 2713.68 1101.34 2715 C 1083.48 2718.53 900.59 2742.45 893.422 2763.95 C 886.148 2785.44 955.82 2808.93 955.82 2808.93 C 955.82 2808.93 1097.48 2742.67 1110.49 2736.17 C 1115.34 2733.74 1119.09 2729.11 1121.73 2723.71"/>
      <path id="path186" style="fill:#2c546e;fill-opacity:1;fill-rule:nonzero;stroke:none" d="M 1132.09 3256.39 C 1111.81 3160.04 1067.16 3002.07 1039.93 2961.05 C 1003 2905.72 887.031 2921.59 873.91 2990.05 C 860.793 3058.51 934.547 3279.87 934.547 3279.87 C 934.547 3279.87 710.539 3516.89 700.063 3543.24 C 689.477 3569.58 693.34 3687.43 702.711 3685.56 C 708.078 3684.48 742.617 3687.37 782.438 3690.26 C 839.863 3694.43 908.277 3698.6 916.023 3690.85 C 922.863 3684.01 982.055 3599.02 1038.17 3512.26 C 1091.2 3430.68 1141.36 3347.67 1142.67 3327.28 C 1143.34 3316.36 1139.26 3290.13 1132.09 3256.39"/>
      <path id="path188" style="fill:#1f3a4f;fill-opacity:1;fill-rule:nonzero;stroke:none" d="M 967.059 2927.62 C 925.105 2927.62 881.645 2949.7 873.91 2990.05 C 872.836 2995.66 872.344 3002.31 872.348 3009.78 C 872.395 3093.34 934.547 3279.87 934.547 3279.87 L 934.547 3279.87 L 934.547 3279.87 C 934.547 3279.87 843.594 3376.11 774.891 3452.75 C 778.496 3489.88 781.902 3526.04 784.727 3557.35 L 784.727 3557.35 C 789.297 3607.47 792.34 3645.09 792.336 3654.5 C 792.336 3655.54 792.301 3656.23 792.223 3656.56 C 791.309 3660.23 766.688 3672.41 734.895 3686.78 C 748.352 3687.71 764.879 3688.98 782.438 3690.26 C 816.402 3692.73 854.215 3695.19 881.043 3695.19 C 899.574 3695.19 912.859 3694.02 916.023 3690.85 C 922.863 3684.01 982.055 3599.02 1038.17 3512.26 C 1027.81 3442.59 1016.46 3372.69 1009.84 3349.88 C 995.289 3299.72 979.082 3285.17 1001.68 3251.32 C 1010.3 3238.36 1026.97 3233.4 1046.25 3233.4 C 1075.04 3233.4 1109.65 3244.44 1132.09 3256.39 C 1111.81 3160.04 1067.16 3002.07 1039.93 2961.05 C 1024.77 2938.33 996.277 2927.62 967.059 2927.62"/>
      <path id="path190" style="fill:#db7f18;fill-opacity:1;fill-rule:nonzero;stroke:none" d="M 724.645 2621.85 C 724.645 2621.85 418.18 2613.36 415.531 2631.77 C 412.887 2650.18 505.051 2968.99 507.691 2976.82 L 637.555 2923.24 L 562.262 2741.35 C 562.262 2741.35 686.941 2673.88 708.992 2663.41 C 713.953 2661.09 717.367 2657.78 719.797 2654.04 C 728.508 2640.7 724.645 2621.85 724.645 2621.85"/>
      <path id="path192" style="fill:#ec9815;fill-opacity:1;fill-rule:nonzero;stroke:none" d="M 719.797 2654.04 C 699.73 2648.53 680.219 2654.04 648.359 2661.2 C 611.316 2669.58 534.809 2675.53 514.418 2692.29 C 494.133 2708.94 534.809 2732.86 562.262 2741.35 C 562.262 2741.35 686.941 2673.88 708.992 2663.41 C 713.953 2661.09 717.367 2657.78 719.797 2654.04"/>
      <path id="path194" style="fill:#2c546e;fill-opacity:1;fill-rule:nonzero;stroke:none" d="M 784.727 3557.35 C 773.48 3432.67 752.98 3230.93 747.469 3198.18 C 739.527 3150.78 657.844 2926.77 642.074 2903.07 C 626.309 2879.37 568.324 2871.54 534.039 2884.66 C 499.863 2897.89 486.637 2929.42 486.637 2961.05 C 486.637 2992.69 557.738 3208.66 557.738 3224.53 C 557.738 3240.3 526.211 3509.06 534.039 3572.23 C 535.805 3586.78 539.773 3603.87 544.73 3621.62 C 561.27 3681.48 589.383 3748.73 589.383 3748.73 C 589.383 3748.73 789.578 3667.15 792.223 3656.56 C 792.992 3653.26 789.801 3613.02 784.727 3557.35"/>
      <path id="path196" style="fill:#1f3a4f;fill-opacity:1;fill-rule:nonzero;stroke:none" d="M 784.727 3557.35 C 746.914 3594.61 693.559 3642.23 662.91 3648.41 C 658.258 3649.34 653.227 3649.76 647.934 3649.76 C 616.105 3649.76 574.508 3634.47 544.73 3621.62 C 561.27 3681.48 589.383 3748.73 589.383 3748.73 C 589.383 3748.73 789.578 3667.15 792.223 3656.56 C 792.301 3656.23 792.336 3655.54 792.336 3654.5 C 792.34 3645.09 789.297 3607.47 784.727 3557.35 L 784.727 3557.35"/>
      <path id="path198" style="fill:#1f3a4f;fill-opacity:1;fill-rule:nonzero;stroke:none" d="M 637.891 3016.14 C 622.902 3016.14 605.91 3057.3 598.063 3098.45 C 590.215 3139.61 591.512 3180.76 613.102 3180.76 C 614.008 3180.76 614.953 3180.69 615.934 3180.54 C 626.266 3178.98 636.332 3178.36 645.844 3178.36 C 663.082 3178.37 678.508 3180.38 690.418 3182.39 C 702.328 3184.4 710.723 3186.42 713.902 3186.42 C 714.008 3186.42 714.105 3186.42 714.199 3186.41 C 744.992 3184.95 670.199 3022.15 639.398 3016.28 C 638.898 3016.19 638.395 3016.14 637.891 3016.14"/>
      <path id="path200" style="fill:#54a274;fill-opacity:1;fill-rule:nonzero;stroke:none" d="M 1102.27 3938.36 C 1105.94 4079.83 1085.73 4144.14 1085.73 4144.14 C 934.148 4148.27 971.355 3890.59 963.09 3766.56 C 960.488 3727.57 960.273 3697.87 956.688 3675.63 C 974.863 3625.6 1072.73 3677.84 1099.51 3758.96 C 1099.38 3780.69 1101.67 3915.04 1102.27 3938.36"/>
      <path id="path202" style="fill:#76c493;fill-opacity:1;fill-rule:nonzero;stroke:none" d="M 1062.09 3962.71 C 1039.93 3917.5 1016.34 3860.4 996.609 3809.36 C 969.27 3738.7 948.984 3679.72 948.984 3679.72 C 948.984 3679.72 871.156 3628.45 720.785 3656.79 C 570.422 3685 566.891 3759.31 566.891 3759.31 C 618.152 4003.38 731.371 4226.18 768.52 4240.4 C 770.176 4241.06 771.832 4241.61 773.699 4242.38 L 773.813 4242.38 C 815.152 4256.83 917.566 4280.41 968.391 4256.27 C 1116.99 4185.5 1115.23 4070.63 1062.09 3962.71"/>
      <path id="path204" style="fill:#54a274;fill-opacity:1;fill-rule:nonzero;stroke:none" d="M 996.609 3809.36 C 969.27 3738.7 948.984 3679.72 948.984 3679.72 C 948.984 3679.72 871.156 3628.45 720.785 3656.79 C 570.422 3685 566.891 3759.31 566.891 3759.31 C 618.152 4003.38 731.371 4226.18 768.52 4240.4 C 770.176 4241.06 771.832 4241.61 773.699 4242.38 L 773.813 4242.38 C 785.168 4235.88 796.523 4227.5 807.656 4217.03 C 811.188 4213.61 808.871 4114.28 743.277 4078.46 C 677.688 4042.52 676.469 4010.33 728.395 3906.48 C 780.43 3802.52 920.215 3849.49 940.055 3838.35 C 959.902 3827.22 917.789 3796.24 829.926 3792.6 C 753.199 3789.3 889.898 3742.66 996.609 3809.36"/>
      <path id="path206" style="fill:#d07038;fill-opacity:1;fill-rule:nonzero;stroke:none" d="M 619.965 3780.34 L 627.543 3781.72 C 627.543 3781.72 673.02 3758.98 683.355 3749.34 C 693.691 3739.69 690.242 3704.55 690.242 3695.6 C 690.242 3686.64 684.043 3676.3 664.75 3683.19 C 645.461 3690.08 633.059 3697.66 630.305 3708 C 627.543 3718.33 655.105 3718.33 655.105 3718.33 C 655.105 3718.33 597.227 3731.43 619.965 3780.34"/>
      <path id="path208" style="fill:#4c3636;fill-opacity:1;fill-rule:nonzero;stroke:none" d="M 396.73 3949.34 C 396.73 3949.34 360.016 3956.73 365.527 3918.14 L 630.84 3686.52 L 664.145 3718.36 L 396.73 3949.34"/>
      <path id="path210" style="fill:#d07038;fill-opacity:1;fill-rule:nonzero;stroke:none" d="M 682.645 3704.52 C 682.645 3681.81 659.938 3658.44 659.938 3658.44 C 659.938 3658.44 638.324 3640.69 629.18 3645.32 C 619.918 3649.84 616.277 3659.1 613.523 3659.1 C 610.766 3659.1 604.375 3658.11 599.742 3660.86 C 595.113 3663.62 587.836 3672.88 587.836 3672.88 C 587.836 3672.88 578.578 3672.88 572.184 3677.4 C 565.793 3682.03 561.156 3693.06 561.156 3693.06 C 561.156 3693.06 540.984 3692.17 539.996 3704.08 C 539.332 3713.01 545.281 3755.12 548.367 3775.96 C 549.473 3783.01 550.137 3787.64 550.137 3787.64 L 541.863 3841.88 L 622.012 3847.17 L 626.754 3790.4 L 627.523 3781.69 C 627.523 3781.69 682.645 3727.34 682.645 3704.52"/>
      <path id="path212" style="fill:#c56129;fill-opacity:1;fill-rule:nonzero;stroke:none" d="M 626.754 3790.4 C 612.203 3780.81 585.629 3769.34 548.367 3775.96 C 549.473 3783.01 550.137 3787.64 550.137 3787.64 L 541.863 3841.88 L 622.012 3847.17 L 626.754 3790.4"/>
      <path id="path214" style="fill:#b0e3bd;fill-opacity:1;fill-rule:nonzero;stroke:none" d="M 533.242 3867.46 L 543.574 3797.18 C 543.574 3797.18 600.762 3773.75 631.078 3806.82 L 624.188 3875.03 L 533.242 3867.46"/>
      <path id="path216" style="fill:#76c493;fill-opacity:1;fill-rule:nonzero;stroke:none" d="M 769.293 4101.94 C 710.758 4079.89 626.754 4066.77 626.754 4066.77 L 645.055 3908.25 C 646.598 3895.9 644.609 3883.99 639.98 3873.3 C 631.051 3852.24 611.539 3836.37 587.18 3833.61 C 585.961 3833.5 584.75 3833.39 583.539 3833.28 C 549.363 3830.3 519.156 3855.33 513.645 3889.06 C 503.281 3951.79 488.07 4071.07 494.023 4134.02 C 494.023 4134.02 497.109 4135.56 502.621 4138.43 C 542.75 4158.6 712.406 4242.5 774.586 4248.67 C 845.359 4255.72 845.359 4200.93 845.359 4200.93 C 857.703 4154.96 825.957 4123.11 769.293 4101.94"/>
      <path id="path218" style="fill:#54a274;fill-opacity:1;fill-rule:nonzero;stroke:none" d="M 639.98 3873.3 C 631.051 3852.24 611.539 3836.37 587.18 3833.61 C 585.961 3833.5 584.75 3833.39 583.539 3833.28 C 549.363 3830.3 519.156 3855.33 513.645 3889.06 C 503.281 3951.79 488.07 4071.07 494.023 4134.02 C 494.023 4134.02 497.109 4135.56 502.621 4138.43 C 509.457 4081.43 519.27 3932.83 537.789 3893.92 C 560.496 3846.51 556.418 3890.83 565.68 3893.92 C 574.941 3897 567.66 3879.47 583.098 3859.96 C 594.672 3845.41 620.359 3854.78 639.98 3873.3"/>
      <path id="path220" style="fill:#4c3636;fill-opacity:1;fill-rule:nonzero;stroke:none" d="M 1791.72 2891.14 L 1758.1 2968.41 C 1751.04 2984.62 1731.75 2991.34 1716.21 2983.08 L 1596.55 2919.66 C 1591.19 2916.82 1584.64 2917.56 1580.05 2921.52 L 679.961 3704.7 C 670.992 3712.45 657.602 3712.11 649.039 3703.92 C 639.262 3694.58 639.617 3678.86 649.805 3669.97 L 1523.5 2903.43 C 1531.26 2896.65 1529.83 2884.18 1520.72 2879.36 L 1409.74 2820.47 C 1395.96 2813.09 1390 2796.44 1396.06 2782 L 1433.22 2693.58 C 1435.97 2687.08 1443.8 2684.43 1449.98 2687.85 L 1458.78 2692.75 C 1463.78 2695.54 1466.06 2701.51 1464.19 2706.92 L 1434.98 2791.59 L 1465.96 2806.14 L 1497.82 2729.75 C 1500.46 2723.13 1508.29 2720.48 1514.46 2723.9 L 1525.38 2729.97 C 1530.56 2732.83 1532.76 2739 1530.78 2744.52 L 1501.79 2822.68 L 1534.86 2840.54 L 1569.25 2768.88 C 1572.23 2762.82 1579.84 2760.39 1585.79 2763.7 L 1595.05 2768.88 C 1600.34 2771.86 1602.54 2778.25 1600.23 2783.87 L 1567.93 2860.6 L 1609.27 2883.31 L 1642.78 2810.22 C 1645.66 2803.95 1653.27 2801.46 1659.3 2804.8 L 1669.24 2810.33 C 1674.58 2813.3 1676.76 2819.86 1674.25 2825.43 L 1641.68 2897.75 L 1681.59 2917.04 L 1716.76 2850.79 C 1719.95 2844.95 1727.23 2842.85 1733.07 2846.05 L 1735.39 2847.37 C 1740.9 2850.46 1743.1 2857.4 1740.24 2863.03 L 1707.16 2928.73 L 1739.58 2946.7 L 1770.11 2881.32 C 1772.1 2877.03 1776.4 2874.49 1780.81 2874.49 C 1782.79 2874.49 1784.78 2874.93 1786.65 2876.04 C 1791.94 2879.01 1794.15 2885.51 1791.72 2891.14"/>
      <path id="path222" style="fill:#b35e1e;fill-opacity:1;fill-rule:nonzero;stroke:none" d="M 776.5 4459.04 C 776.5 4459.04 918.191 4332.58 1108.65 4321.91 C 1299.1 4311.25 1405.75 4370.67 1405.75 4370.67 C 1405.75 4370.67 1281.14 4457.84 1086.12 4474.6 C 891.094 4491.36 776.5 4459.04 776.5 4459.04"/>
      <path id="path224" style="fill:#d07038;fill-opacity:1;fill-rule:nonzero;stroke:none" d="M 1049.53 4312.83 L 1018.33 4220.45 L 1012.59 4203.25 C 1012.59 4203.25 986.137 4174.7 948.984 4201.48 C 911.723 4228.16 922.418 4254.51 922.418 4254.51 L 975.227 4351.19 L 984.262 4367.73 C 1021.52 4372.36 1049.53 4312.83 1049.53 4312.83"/>
      <path id="path226" style="fill:#c56129;fill-opacity:1;fill-rule:nonzero;stroke:none" d="M 1049.53 4312.83 L 1018.33 4220.45 C 975.227 4245.8 971.254 4305.88 975.227 4351.19 L 984.262 4367.73 C 1021.52 4372.36 1049.53 4312.83 1049.53 4312.83"/>
      <path id="path228" style="fill:#d07038;fill-opacity:1;fill-rule:nonzero;stroke:none" d="M 1168.8 4365.86 C 1168.25 4364.86 1167.71 4363.76 1167.04 4362.77 C 1128.68 4300.04 1078.63 4210.41 1028.58 4238.3 C 978.645 4266.3 965.852 4339.51 999.586 4400.03 C 1025.6 4446.55 1058.78 4476.09 1093.07 4479.63 C 1103.33 4480.62 1113.69 4479.29 1123.94 4475.54 C 1145.77 4467.5 1203.42 4426.93 1168.8 4365.86"/>
      <path id="path230" style="fill:#272221;fill-opacity:1;fill-rule:nonzero;stroke:none" d="M 1122.51 4348.98 C 1122.51 4348.98 1113.85 4309.39 1109.32 4298.66 C 1104.78 4287.93 1078.37 4305.26 1078.37 4305.26 C 1078.37 4305.26 1096.94 4301.13 1102.71 4302.38 C 1108.49 4303.61 1122.51 4348.98 1122.51 4348.98"/>
      <path id="path232" style="fill:#272221;fill-opacity:1;fill-rule:nonzero;stroke:none" d="M 1063.94 4395.19 C 1063.94 4395.19 1101.47 4395.19 1106.43 4371.68 L 1063.94 4395.19"/>
      <path id="path234" style="fill:#272221;fill-opacity:1;fill-rule:nonzero;stroke:none" d="M 1085.8 4368.89 C 1075.72 4372.47 1063.53 4347.86 1073.01 4342.91 C 1082.5 4337.95 1098.59 4364.36 1085.8 4368.89"/>
      <path id="path236" style="fill:#ffffff;fill-opacity:1;fill-rule:nonzero;stroke:none" d="M 1087.25 4362.95 C 1084.37 4365.52 1080.79 4359.36 1083.66 4357.21 C 1086.53 4355.05 1089.4 4361.04 1087.25 4362.95"/>
      <path id="path238" style="fill:#272221;fill-opacity:1;fill-rule:nonzero;stroke:none" d="M 1133.65 4355.59 C 1132.5 4355.12 1155.1 4346.93 1155.1 4346.93 C 1155.1 4346.93 1150.98 4362.6 1133.65 4355.59"/>
      <path id="path240" style="fill:#272221;fill-opacity:1;fill-rule:nonzero;stroke:none" d="M 1137.09 4343.21 C 1128.19 4346.37 1117.43 4324.64 1125.8 4320.27 C 1134.18 4315.9 1148.38 4339.21 1137.09 4343.21"/>
      <path id="path242" style="fill:#ffffff;fill-opacity:1;fill-rule:nonzero;stroke:none" d="M 1138.37 4337.97 C 1135.83 4340.23 1132.67 4334.8 1135.2 4332.89 C 1137.74 4331 1140.27 4336.28 1138.37 4337.97"/>
      <path id="path244" style="fill:#ffffff;fill-opacity:1;fill-rule:nonzero;stroke:none" d="M 1031.06 4303.69 C 1031.06 4303.69 1056.02 4276.84 1086.97 4274.63 C 1086.97 4274.63 1039.28 4240.82 1031.06 4303.69"/>
      <path id="path246" style="fill:#c56129;fill-opacity:1;fill-rule:nonzero;stroke:none" d="M 1168.8 4365.86 C 1132.09 4362.22 1110.16 4411.6 1097.92 4426.6 C 1084.8 4442.8 1062.97 4437.62 1063.42 4438.94 C 1066.94 4450.41 1076.43 4468.48 1093.07 4479.63 C 1103.33 4480.62 1113.69 4479.29 1123.94 4475.54 C 1145.77 4467.5 1203.42 4426.93 1168.8 4365.86"/>
      <path id="path248" style="fill:#272221;fill-opacity:1;fill-rule:nonzero;stroke:none" d="M 997.719 4369.84 C 997.719 4369.84 1014.63 4395.71 1024.58 4398.7 C 1034.53 4401.68 1053.44 4397.71 1068.36 4435.51 C 1068.36 4435.51 1084.28 4446.46 1104.17 4432.52 C 1124.07 4418.59 1183.77 4338.01 1247.44 4421.58 C 1247.44 4421.58 1209.68 4426.52 1160.88 4475.31 C 1095.22 4540.97 1061.4 4491.23 1061.4 4491.23 C 1061.4 4491.23 1005.68 4521.07 987.773 4418.59 L 997.719 4369.84"/>
      <path id="path250" style="fill:#f9a52b;fill-opacity:1;fill-rule:nonzero;stroke:none" d="M 969.402 4493.04 C 969.402 4493.04 1007.5 4543.12 1036.9 4587.75 C 1066.29 4632.38 1118.54 4565.98 1141.41 4561.63 C 1164.26 4557.27 1208.9 4580.13 1223.05 4567.07 C 1237.2 4554 1237.2 4457.12 1237.2 4457.12 C 1237.2 4457.12 1052.14 4522.44 969.402 4493.04"/>
      <path id="path252" style="fill:#ec9815;fill-opacity:1;fill-rule:nonzero;stroke:none" d="M 776.5 4459.04 C 776.5 4459.04 987.297 4475.89 1126.07 4457.99 C 1264.85 4440.08 1405.75 4370.67 1405.75 4370.67 C 1405.75 4370.67 1276.79 4492.31 1075.34 4501.27 C 873.883 4510.21 776.5 4459.04 776.5 4459.04"/>
      <path id="path254" style="fill:#d07038;fill-opacity:1;fill-rule:nonzero;stroke:none" d="M 1006.54 4393.01 C 1006.54 4393.01 1011.19 4444.18 972.816 4439.53 C 934.441 4434.88 934.441 4351.15 989.098 4354.64 L 1006.54 4393.01"/>
      <path id="path256" style="fill:#c56129;fill-opacity:1;fill-rule:nonzero;stroke:none" d="M 986.07 4418.89 C 986.07 4418.89 979.223 4426.72 969.449 4425.77 C 959.672 4424.82 953.746 4403.28 958.059 4389.27 C 962.367 4375.27 981.758 4368.8 981.758 4368.8 C 981.758 4368.8 973.945 4382.8 980.141 4388.19 C 986.34 4393.58 993.609 4398.96 993.609 4398.96 C 993.609 4398.96 991.453 4412.7 986.07 4418.89"/>
      <path id="path258" style="fill:#272221;fill-opacity:1;fill-rule:nonzero;stroke:none" d="M 969.449 4425.77 C 987.23 4427.14 996.809 4416.66 996.348 4396.13 C 996.348 4396.13 984.949 4392.94 982.219 4387.01 C 979.477 4381.09 982.672 4368.77 982.672 4368.77 C 982.672 4368.77 969.449 4384.28 974.465 4390.66 C 979.477 4397.05 990.422 4400.69 990.422 4400.69 C 990.422 4400.69 992.605 4413.18 984.184 4419.35 C 975.762 4425.53 969.449 4425.77 969.449 4425.77"/>
      <path id="path260" style="fill:#76c493;fill-opacity:1;fill-rule:nonzero;stroke:none" d="M 971.121 3731.15 C 957.523 3690.85 939.629 3610.25 957.578 3581.91 C 983.762 3540.57 1041.64 3536.44 1065.06 3546.08 C 1088.49 3555.73 1118.8 3587.42 1114.67 3634.27 C 1111.37 3671.73 1101.8 3718.12 1100.38 3818.59 C 1100.16 3834.21 1086.25 3846.28 1070.79 3844.04 C 1038.25 3839.34 993.176 3796.48 971.121 3731.15"/>
      <path id="path262" style="fill:#b0e3bd;fill-opacity:1;fill-rule:nonzero;stroke:none" d="M 983.762 3566.29 L 971.816 3474.42 C 971.816 3474.42 984.68 3444.11 1013.16 3438.6 C 1041.64 3433.09 1063.68 3456.05 1063.68 3456.05 L 1071.95 3559.86 C 1071.95 3559.86 1032.45 3591.1 983.762 3566.29"/>
      <path id="path264" style="fill:#c56129;fill-opacity:1;fill-rule:nonzero;stroke:none" d="M 985.137 3480.62 C 985.137 3480.62 956.199 3455.13 947.93 3438.6 C 939.664 3422.06 941.086 3382.75 994.098 3367.63 C 1043.28 3353.59 1060.6 3390.35 1061.98 3418.59 C 1063.35 3446.85 1057.49 3464.09 1057.49 3464.09 C 1057.49 3464.09 1036.81 3488.9 985.137 3480.62"/>
      <path id="path266" style="fill:#d07038;fill-opacity:1;fill-rule:nonzero;stroke:none" d="M 1058.68 3382.5 C 1042.58 3377.54 1032.88 3361.45 1032.88 3348.99 L 1033.1 3346.9 C 1033.87 3335.65 1042.14 3327.94 1042.14 3327.94 L 1032.44 3324.63 C 1003.55 3317.8 994.734 3341.72 994.734 3341.72 C 968.609 3342.6 969.934 3367.85 969.934 3367.85 C 969.934 3367.85 949.316 3362.33 941.488 3371.48 C 933.66 3380.74 939.176 3395.41 939.176 3395.41 C 939.176 3395.41 919.441 3400.47 915.359 3413.37 C 914.59 3415.58 914.48 3417.9 914.809 3420.32 C 916.465 3431.89 928.699 3444.9 935.535 3453.28 C 941.711 3460.89 960.012 3465.96 970.703 3461.88 C 975.445 3460 978.75 3455.6 979.301 3450.42 L 979.633 3446.45 C 1003.99 3451.96 1003.99 3426.16 1003.99 3426.16 C 1034.75 3431.67 1031.11 3405.99 1031.11 3405.99 C 1056.8 3412.38 1074.66 3387.58 1058.68 3382.5"/>
      <path id="path268" style="fill:#c56129;fill-opacity:1;fill-rule:nonzero;stroke:none" d="M 1042.14 3327.94 L 1032.44 3324.63 C 1003.55 3317.8 994.734 3341.72 994.734 3341.72 C 968.609 3342.6 969.934 3367.85 969.934 3367.85 C 969.934 3367.85 949.316 3362.33 941.488 3371.48 C 933.66 3380.74 939.176 3395.41 939.176 3395.41 C 939.176 3395.41 919.441 3400.47 915.359 3413.37 C 914.59 3415.58 914.48 3417.9 914.809 3420.32 C 918.445 3413.71 925.504 3406.98 939.508 3406.98 C 939.508 3406.98 948.879 3419.66 957.914 3427.71 C 957.914 3427.71 943.695 3402.24 950.859 3390.88 C 957.914 3379.53 970.703 3386.69 970.703 3386.69 C 970.703 3386.69 977.207 3397.83 986.137 3407.75 C 985.473 3405.88 977.539 3384.27 985.254 3373.91 C 993.301 3362.99 996.168 3364.98 996.168 3364.98 C 996.168 3364.98 993.301 3375.34 1005.1 3389.01 C 1005.1 3389.01 999.031 3346.02 1019.76 3344.58 C 1024.83 3344.25 1029.24 3345.24 1033.1 3346.9 C 1033.87 3335.65 1042.14 3327.94 1042.14 3327.94"/>
      <path id="path270" style="fill:#d07038;fill-opacity:1;fill-rule:nonzero;stroke:none" d="M 1074.22 3394.08 C 1073.56 3391.77 1072.79 3389.79 1071.68 3388.02 C 1063.09 3372.7 1041.92 3378.21 1015.46 3383.5 C 986.578 3389.34 984.813 3400.03 994.184 3405.99 L 994.734 3406.43 C 1003.77 3411.72 1022.51 3412.6 1026.6 3412.71 C 1025.27 3413.15 1021.41 3415.36 1010.83 3425.28 C 1007.52 3428.37 1005.54 3432.11 1004.55 3435.75 L 1004.55 3435.86 C 1001.13 3448.98 1009.29 3463.42 1009.29 3463.42 C 1025.6 3478.09 1049.41 3469.37 1056.8 3462.43 C 1064.18 3455.6 1080.72 3416.57 1074.22 3394.08"/>
      <path id="path272" style="fill:#c56129;fill-opacity:1;fill-rule:nonzero;stroke:none" d="M 1010.83 3425.28 C 1007.52 3428.37 1005.54 3432.11 1004.55 3435.75 C 1010.06 3430.24 1019.21 3423.3 1030.67 3420.65 C 1050.52 3416.02 1050.85 3410.51 1050.85 3410.51 C 1050.85 3410.51 1043.02 3411.72 1027.37 3412.71 L 1026.82 3412.71 L 1026.6 3412.71 C 1025.27 3413.15 1021.41 3415.36 1010.83 3425.28"/>
      <path id="path274" style="fill:#c56129;fill-opacity:1;fill-rule:nonzero;stroke:none" d="M 1071.68 3388.02 C 1063.09 3372.7 1041.92 3378.21 1015.46 3383.5 C 986.578 3389.34 984.813 3400.03 994.184 3405.99 C 1001.57 3404 1019.54 3404.34 1033.43 3401.58 C 1046 3399.26 1065.84 3394.97 1071.68 3388.02"/>
    </g>
  </g>
</svg>